<?xml version="1.0" encoding="UTF-8" standalone="no"?>
<!DOCTYPE svg PUBLIC "-//W3C//DTD SVG 1.1//EN" "http://www.w3.org/Graphics/SVG/1.1/DTD/svg11.dtd">
<svg width="100%" height="100%" viewBox="0 0 512 512" version="1.1" xmlns="http://www.w3.org/2000/svg" xmlns:xlink="http://www.w3.org/1999/xlink" xml:space="preserve" xmlns:serif="http://www.serif.com/" style="fill-rule:evenodd;clip-rule:evenodd;stroke-linejoin:round;stroke-miterlimit:2;">
    <path d="M400,32L112,32C85.668,32 64,53.668 64,80L64,400C63.999,413.642 69.825,426.654 80,435.74L80,454C80,468.263 91.737,480 106,480L134,480C148.263,480 160,468.263 160,454L160,448L352,448L352,454C352,468.263 363.737,480 378,480L406,480C420.263,480 432,468.263 432,454L432,435.74C442.175,426.654 448.001,413.642 448,400L448,80C448,53.668 426.332,32 400,32ZM147.47,399.82C146.32,399.945 145.164,400.008 144.008,400.008C126.453,400.008 112.008,385.563 112.008,368.008C112.008,350.453 126.453,336.008 144.008,336.008C161.563,336.008 176.008,350.453 176.008,368.008C176.008,369.164 175.945,370.32 175.82,371.47C174.201,386.349 162.349,398.201 147.47,399.82ZM236,288L112,288C103.223,288 96,280.777 96,272L96,144C96,135.223 103.223,128 112,128L236,128C238.194,128 240,129.806 240,132L240,284C240,286.194 238.194,288 236,288ZM400.001,96L112.46,96C103.86,96 96.46,89.4 96.02,80.81C96.006,80.54 95.999,80.27 95.999,80C95.999,71.223 103.222,64 111.999,64C112,64 112,64 112,64L399.54,64C408.14,64 415.54,70.6 415.98,79.19C415.994,79.46 416.001,79.73 416.001,80C416.001,88.777 408.778,96 400.001,96ZM276,128L400,128C408.777,128 416,135.223 416,144L416,272C416,280.777 408.777,288 400,288L276,288C273.806,288 272,286.194 272,284L272,132C272,129.806 273.806,128 276,128ZM336.18,371.47C336.055,370.32 335.992,369.164 335.992,368.008C335.992,350.453 350.437,336.008 367.992,336.008C385.547,336.008 399.992,350.453 399.992,368.008C399.992,385.563 385.547,400.008 367.992,400.008C366.836,400.008 365.68,399.945 364.53,399.82C349.651,398.201 337.799,386.349 336.18,371.47Z" style="fill:rgb(126,126,126);fill-rule:nonzero;"/>
</svg>
